:SAMPLES-PER-SECOND 30
:FULLY-SPECIFIED
:DEGREES
783
root  -5.24972 38.7204 2.77003 -101.649 88.1998 -97.8571
RightUpLeg  -8.99961 -6.66232 4.01407
RightLeg  24.7861 2.13743 1.00082
RightFoot  -10.9807 -0.0613745 -4.14654
RightToes  9.54606e-009 0 -3.6325e-017
Spine  5.15671 0.150398 13.3126
Spine1  6.93428 2.71015 -4.16452
HEad  -18.0883 -4.39009 -3.21829
LeftShoulder1  -0.386607 4.49908 -32.709
LeftArm  -2.37528 12.8916 -38.0812
LeftForeArm  39.634 -3.73593 -9.67842
LeftHand  -0.225368 10.2187 -3.88281
RightShoulder  -0.8632 -6.00915 27.8635
RightArm  20.9911 13.1406 50.6333
RightForeArm  7.72791 16.996 5.71785
RightHand  -0.227797 5.65097 -2.72955
LeftUpLeg  -15.8846 -3.3712 5.03784
LeftLeg  61.4246 -2.2581 -3.91926
LeftFoot  -0.197428 0.497166 -5.09349
LeftToes  -8.26734e-010 9.74065e-011 1.64617e-011
784
root  -4.16749 38.8755 2.96397 -87.4897 89.016 -83.8487
RightUpLeg  -6.60019 -7.31775 3.09443
RightLeg  23.5513 3.25754 1.55719
RightFoot  -12.1402 -0.112137 -4.35022
RightToes  9.54606e-009 0 -3.6325e-017
Spine  4.74489 0.762291 12.7814
Spine1  6.78799 3.26493 -4.65356
HEad  -17.4495 -4.87692 -3.18819
LeftShoulder1  -0.389521 4.50353 -32.8137
LeftArm  -1.65066 14.6871 -36.5322
LeftForeArm  38.9456 -4.40496 -9.92562
LeftHand  -0.186319 10.0813 -3.09689
RightShoulder  -0.853621 -6.00316 27.5575
RightArm  22.2344 14.2819 50.6124
RightForeArm  6.21347 19.6783 4.96336
RightHand  -0.174452 5.76691 -2.14091
LeftUpLeg  -18.1211 -2.63734 4.22926
LeftLeg  56.5991 -2.53039 -3.64592
LeftFoot  -1.37172 0.414914 -4.65924
LeftToes  -8.26734e-010 9.74065e-011 1.64617e-011
785
root  -3.1046 39.0171 3.12386 -41.6639 89.5978 -37.9011
RightUpLeg  -3.79803 -7.68809 2.14939
RightLeg  21.9881 4.1189 1.83934
RightFoot  -13.0667 -0.155477 -4.455
RightToes  9.54606e-009 0 -3.6325e-017
Spine  5.17193 1.12563 12.7026
Spine1  5.796 3.76868 -6.08691
HEad  -16.9042 -4.88371 -2.84612
LeftShoulder1  -0.303057 4.2936 -32.2342
LeftArm  -0.578325 16.9974 -35.5827
LeftForeArm  38.1214 -5.86235 -10.0701
LeftHand  -0.166691 9.80331 -2.83081
RightShoulder  -0.822416 -5.91543 27.4948
RightArm  22.4823 14.835 50.2471
RightForeArm  5.64572 22.0692 4.64869
RightHand  -0.152608 6.07219 -1.87525
LeftUpLeg  -19.1817 -1.66157 3.30691
LeftLeg  49.5964 -2.62497 -2.88174
LeftFoot  -2.17674 0.362126 -4.36614
LeftToes  -8.26734e-010 9.74065e-011 1.64617e-011
786
root  -2.05811 39.1091 3.25937 33.7946 89.5088 37.3273
RightUpLeg  -1.32949 -8.12613 1.41904
RightLeg  20.072 4.5583 1.98845
RightFoot  -13.8555 -0.198756 -4.78143
RightToes  9.54606e-009 0 -3.6325e-017
Spine  4.91363 1.47405 12.567
Spine1  5.48444 4.10508 -7.30143
HEad  -17.0808 -5.21324 -2.77939
LeftShoulder1  -0.233891 4.11905 -31.9088
LeftArm  -0.270087 18.5392 -35.2
LeftForeArm  36.6894 -6.93709 -9.83744
LeftHand  -0.16372 9.71775 -2.8095
RightShoulder  -0.843244 -5.97377 27.5408
RightArm  21.9384 15.3623 49.8652
RightForeArm  6.1947 24.0391 4.79756
RightHand  -0.218739 6.13545 -2.54089
LeftUpLeg  -19.995 -0.52175 2.51926
LeftLeg  41.0273 -2.6896 -2.13849
LeftFoot  -2.27255 0.437582 -5.3192
LeftToes  -8.26734e-010 9.74065e-011 1.64617e-011
787
root  -1.02221 39.1628 3.39294 42.4655 89.1084 45.7268
RightUpLeg  1.03057 -8.4912 0.856925
RightLeg  18.422 5.20123 2.28047
RightFoot  -14.597 -0.241654 -5.04134
RightToes  9.54606e-009 0 -3.6325e-017
Spine  4.65652 1.74153 12.2542
Spine1  5.44253 4.30676 -8.06734
HEad  -17.067 -4.85852 -2.87947
LeftShoulder1  -0.293505 4.27457 -31.9288
LeftArm  -0.229345 19.3613 -35.0161
LeftForeArm  35.3221 -7.86508 -9.50589
LeftHand  -0.19423 9.73829 -3.55529
RightShoulder  -0.838051 -5.95538 27.5751
RightArm  21.7141 16.015 49.5853
RightForeArm  6.9688 25.2574 5.0485
RightHand  -0.180944 6.57822 -2.09806
LeftUpLeg  -20.1126 0.753123 1.89168
LeftLeg  31.2919 -2.75359 -1.46166
LeftFoot  -1.40359 0.580015 -6.58346
LeftToes  -8.26734e-010 9.74065e-011 1.64617e-011
788
root  -0.00330798 39.2041 3.50885 39.7898 88.6827 42.6223
RightUpLeg  3.20917 -8.41874 0.47508
RightLeg  16.5114 5.65665 2.26657
RightFoot  -15.0987 -0.26459 -4.94965
RightToes  9.54606e-009 0 -3.6325e-017
Spine  4.20275 2.05911 11.5571
Spine1  5.57256 4.43822 -8.23963
HEad  -17.1599 -4.38522 -3.52464
LeftShoulder1  -0.365273 4.45219 -32.3881
LeftArm  -0.425196 19.5035 -35.0107
LeftForeArm  33.232 -8.25323 -9.30622
LeftHand  -0.13441 9.5009 -2.22498
RightShoulder  -0.768665 -5.78844 27.0173
RightArm  21.8492 16.2032 49.8536
RightForeArm  6.75296 25.5261 5.12029
RightHand  -0.199242 5.8988 -2.37233
LeftUpLeg  -19.657 1.72565 1.20513
LeftLeg  20.4898 -2.89644 -0.880958
LeftFoot  -0.975535 0.57668 -6.28959
LeftToes  -8.26734e-010 9.74065e-011 1.64617e-011
